<mxfile host="app.diagrams.net" modified="2021-10-21T07:51:44.561Z" agent="5.0 (Macintosh; Intel Mac OS X 10_15_7) AppleWebKit/537.36 (KHTML, like Gecko) Chrome/95.0.4638.54 Safari/537.36" etag="p4Q7zejkE5fKKCuUur56" version="15.5.6" type="github">
  <diagram id="Nfzj3-45e-fYplGMUKLw" name="Page-1">
    <mxGraphModel dx="1426" dy="877" grid="1" gridSize="10" guides="1" tooltips="1" connect="1" arrows="1" fold="1" page="1" pageScale="1" pageWidth="850" pageHeight="1100" math="0" shadow="0">
      <root>
        <mxCell id="0" />
        <mxCell id="1" parent="0" />
        <mxCell id="tfhazVFiJOZhvMuRtOAB-1" value="Query" style="rounded=0;whiteSpace=wrap;html=1;" vertex="1" parent="1">
          <mxGeometry x="90" y="170" width="120" height="60" as="geometry" />
        </mxCell>
        <mxCell id="tfhazVFiJOZhvMuRtOAB-2" value="Event Source" style="rounded=0;whiteSpace=wrap;html=1;" vertex="1" parent="1">
          <mxGeometry x="1310" y="310" width="120" height="60" as="geometry" />
        </mxCell>
        <mxCell id="tfhazVFiJOZhvMuRtOAB-3" value="" style="rounded=0;whiteSpace=wrap;html=1;" vertex="1" parent="1">
          <mxGeometry x="340" y="330" width="470" height="230" as="geometry" />
        </mxCell>
        <mxCell id="tfhazVFiJOZhvMuRtOAB-4" value="cache layer" style="text;html=1;strokeColor=none;fillColor=none;align=center;verticalAlign=middle;whiteSpace=wrap;rounded=0;" vertex="1" parent="1">
          <mxGeometry x="340" y="330" width="90" height="30" as="geometry" />
        </mxCell>
        <mxCell id="tfhazVFiJOZhvMuRtOAB-5" value="consumer" style="rounded=0;whiteSpace=wrap;html=1;" vertex="1" parent="1">
          <mxGeometry x="980" y="410" width="120" height="60" as="geometry" />
        </mxCell>
        <mxCell id="tfhazVFiJOZhvMuRtOAB-6" value="" style="endArrow=classic;html=1;rounded=0;exitX=0.5;exitY=1;exitDx=0;exitDy=0;entryX=0;entryY=0.5;entryDx=0;entryDy=0;" edge="1" parent="1" source="tfhazVFiJOZhvMuRtOAB-1" target="tfhazVFiJOZhvMuRtOAB-3">
          <mxGeometry width="50" height="50" relative="1" as="geometry">
            <mxPoint x="150" y="320" as="sourcePoint" />
            <mxPoint x="200" y="270" as="targetPoint" />
          </mxGeometry>
        </mxCell>
        <mxCell id="tfhazVFiJOZhvMuRtOAB-7" value="" style="rounded=0;whiteSpace=wrap;html=1;" vertex="1" parent="1">
          <mxGeometry x="90" y="490" width="120" height="60" as="geometry" />
        </mxCell>
        <mxCell id="tfhazVFiJOZhvMuRtOAB-8" value="" style="endArrow=classic;html=1;rounded=0;exitX=0.5;exitY=1;exitDx=0;exitDy=0;entryX=0.5;entryY=0;entryDx=0;entryDy=0;" edge="1" parent="1" source="tfhazVFiJOZhvMuRtOAB-1" target="tfhazVFiJOZhvMuRtOAB-7">
          <mxGeometry width="50" height="50" relative="1" as="geometry">
            <mxPoint x="170" y="440" as="sourcePoint" />
            <mxPoint x="220" y="390" as="targetPoint" />
          </mxGeometry>
        </mxCell>
        <mxCell id="tfhazVFiJOZhvMuRtOAB-9" value="" style="endArrow=classic;html=1;rounded=0;exitX=0;exitY=0.5;exitDx=0;exitDy=0;entryX=1;entryY=0.5;entryDx=0;entryDy=0;" edge="1" parent="1" source="tfhazVFiJOZhvMuRtOAB-2" target="tfhazVFiJOZhvMuRtOAB-5">
          <mxGeometry width="50" height="50" relative="1" as="geometry">
            <mxPoint x="1050" y="230" as="sourcePoint" />
            <mxPoint x="1100" y="180" as="targetPoint" />
          </mxGeometry>
        </mxCell>
      </root>
    </mxGraphModel>
  </diagram>
</mxfile>
